<svg width="250" height="235" viewBox="0 0 250 235" fill="none" xmlns="http://www.w3.org/2000/svg">
<path d="M68.8174 218.356C69.5039 217.142 70.3237 216.24 71.2765 215.649C72.2156 215.051 73.2101 214.758 74.26 214.769C75.3178 214.766 76.3758 215.036 77.4341 215.58L76.334 217.526C75.3369 217.035 74.3485 216.931 73.3687 217.215C72.3829 217.477 71.5233 218.256 70.7899 219.553L63.8971 231.744L61.8894 230.609L68.8174 218.356Z" fill="white"/>
<path d="M66.4237 213.378L56.183 227.185L52.4208 224.395C51.0585 223.384 50.0557 222.315 49.4125 221.187C48.7565 220.049 48.3906 218.919 48.3149 217.797C48.2392 216.675 48.3792 215.595 48.7351 214.556C49.0688 213.521 49.5425 212.59 50.1563 211.762C50.9306 210.718 51.8093 209.919 52.7923 209.366C53.7625 208.803 54.7832 208.464 55.8541 208.351C56.9251 208.237 57.9923 208.328 59.056 208.624C60.0974 208.922 61.0765 209.412 61.9931 210.092L66.4237 213.378ZM63.254 213.78L61.0387 212.137C60.2748 211.57 59.4896 211.166 58.683 210.923C57.8638 210.67 57.0581 210.586 56.2659 210.669C55.4611 210.743 54.6936 210.993 53.9636 211.419C53.2241 211.857 52.5569 212.477 51.962 213.279C51.3293 214.132 50.9169 214.981 50.7249 215.825C50.5234 216.682 50.504 217.507 50.6668 218.298C50.8295 219.09 51.1362 219.821 51.5868 220.49C52.0279 221.173 52.5859 221.764 53.2606 222.265L55.6478 224.035L63.254 213.78Z" fill="white"/>
<path d="M35.6066 207.012C35.7729 207.495 36.0398 208.057 36.4073 208.697C36.7635 209.348 37.1984 209.933 37.7121 210.45C38.5383 211.283 39.4053 211.74 40.3129 211.822C41.2204 211.904 41.9893 211.632 42.6193 211.007C43.0918 210.538 43.3516 210.012 43.3987 209.429C43.4233 208.847 43.3191 208.224 43.0863 207.562C42.8534 206.9 42.587 206.215 42.287 205.508C42.0313 204.958 41.8036 204.402 41.604 203.841C41.3932 203.268 41.2608 202.696 41.207 202.124C41.1307 201.552 41.1889 200.981 41.3816 200.41C41.5743 199.839 41.9463 199.28 42.4975 198.733C43.1726 198.063 43.9196 197.634 44.7385 197.447C45.5462 197.271 46.3642 197.319 47.1926 197.591C48.0098 197.874 48.7701 198.37 49.4736 199.079C50.0877 199.698 50.5617 200.333 50.8955 200.984C51.2292 201.635 51.4736 202.23 51.6285 202.769C51.7722 203.296 51.8771 203.706 51.9433 203.997L51.1859 204.213C51.1202 203.787 51.0044 203.31 50.8382 202.783C50.6609 202.244 50.4276 201.694 50.1383 201.132C49.8378 200.582 49.4753 200.093 49.051 199.666C48.5374 199.148 47.9392 198.748 47.2566 198.465C46.5627 198.194 45.8569 198.112 45.1391 198.222C44.4102 198.32 43.7307 198.682 43.1006 199.307C42.4706 199.932 42.1207 200.581 42.0509 201.253C41.9587 201.925 42.0346 202.609 42.2785 203.305C42.5001 204.001 42.772 204.703 43.0944 205.41C43.3278 205.938 43.5555 206.471 43.7777 207.01C43.9774 207.548 44.1267 208.081 44.2256 208.609C44.302 209.136 44.2721 209.646 44.1357 210.138C43.9994 210.631 43.7118 211.095 43.273 211.53C42.7217 212.078 42.104 212.412 41.4198 212.532C40.7132 212.653 40.0074 212.583 39.3022 212.322C38.5746 212.062 37.8982 211.628 37.2728 211.02C36.7815 210.525 36.3186 209.924 35.8841 209.216C35.4497 208.508 35.1327 207.84 34.9334 207.212L35.6066 207.012Z" fill="white"/>
<path d="M29.9047 202.939L23.3051 194.217L23.9308 193.744L27.001 197.801L39.7614 188.146L40.2492 188.79L27.4888 198.446L30.5304 202.466L29.9047 202.939Z" fill="white"/>
<path d="M28.8444 182.127C29.7627 181.625 30.4502 181.016 30.9068 180.297C31.3634 179.578 31.5947 178.811 31.601 177.995C31.5996 177.165 31.3787 176.347 30.9383 175.54C30.4904 174.719 29.9178 174.083 29.2207 173.633C28.5236 173.183 27.7494 172.955 26.898 172.95C26.039 172.931 25.1503 173.172 24.232 173.673L14.4013 179.037L14.0255 178.349L23.9188 172.95C24.9902 172.366 26.0231 172.091 27.0174 172.126C27.9902 172.155 28.8765 172.439 29.6761 172.978C30.4681 173.503 31.1184 174.232 31.6271 175.164C32.1358 176.096 32.3965 177.037 32.4093 177.987C32.4221 178.937 32.1775 179.829 31.6754 180.663C31.1593 181.504 30.3656 182.217 29.2942 182.802L19.401 188.2L19.0137 187.491L28.8444 182.127Z" fill="white"/>
<path d="M26.2832 164.787L10.4248 170.291L9.11507 166.518C8.59014 165.005 8.38765 163.624 8.50761 162.374C8.6126 161.13 8.94759 160.04 9.51257 159.106C10.0574 158.162 10.7469 157.369 11.5812 156.727C12.4005 156.09 13.2669 155.613 14.1803 155.296C15.3783 154.881 16.5368 154.713 17.6557 154.795C18.7596 154.882 19.7807 155.165 20.719 155.644C21.6573 156.124 22.4748 156.763 23.1714 157.562C23.8478 158.351 24.3628 159.254 24.7162 160.272L26.2832 164.787ZM25.2769 164.281L24.0607 160.777C23.7177 159.788 23.2307 158.917 22.5998 158.163C21.9689 157.409 21.2347 156.816 20.3973 156.385C19.5397 155.945 18.6041 155.691 17.5907 155.623C16.5772 155.555 15.5164 155.714 14.4083 156.098C13.5248 156.405 12.7082 156.856 11.9586 157.452C11.209 158.047 10.5989 158.779 10.1283 159.647C9.63758 160.506 9.35897 161.492 9.29248 162.605C9.22079 163.704 9.41363 164.912 9.87099 166.23L10.9235 169.262L25.2769 164.281Z" fill="white"/>
<path d="M4.63695 151.182L4.46315 150.392L20.857 146.783L21.0308 147.573L4.63695 151.182Z" fill="white"/>
<path d="M11.2206 142.584C10.0518 142.682 8.93536 142.554 7.87136 142.198C6.79156 141.844 5.82412 141.313 4.96905 140.606C4.11265 139.883 3.41999 139.027 2.89107 138.037C2.34503 137.033 2.02269 135.947 1.92404 134.778C1.82406 133.594 1.95977 132.469 2.33117 131.403C2.68678 130.339 3.22613 129.379 3.94922 128.523C4.67232 127.666 5.53644 126.973 6.54158 126.443C7.5296 125.898 8.60802 125.576 9.77685 125.478C10.9457 125.379 12.0707 125.515 13.1518 125.885C14.2158 126.24 15.176 126.78 16.0324 127.503C16.873 128.227 17.5578 129.084 18.0867 130.074C18.6156 131.063 18.93 132.15 19.03 133.335C19.1287 134.503 19.0167 135.626 18.694 136.703C18.3542 137.766 17.8385 138.724 17.147 139.578C16.4384 140.417 15.5815 141.102 14.5763 141.632C13.5712 142.163 12.4526 142.48 11.2206 142.584ZM11.1743 141.752C12.2484 141.662 13.2347 141.38 14.1333 140.906C15.0318 140.433 15.8072 139.818 16.4593 139.063C17.1101 138.293 17.5936 137.425 17.9098 136.459C18.226 135.494 18.3402 134.49 18.2522 133.448C18.1602 132.358 17.8774 131.364 17.4039 130.465C16.929 129.551 16.3069 128.776 15.5375 128.141C14.7667 127.49 13.898 126.999 12.9315 126.667C11.9491 126.336 10.9209 126.216 9.84684 126.307C8.77278 126.398 7.78713 126.688 6.88988 127.177C5.97551 127.652 5.19293 128.275 4.54214 129.045C3.89136 129.816 3.40062 130.693 3.06994 131.675C2.73792 132.642 2.61657 133.654 2.70589 134.712C2.79788 135.802 3.09709 136.803 3.60355 137.715C4.09287 138.612 4.73014 139.377 5.51537 140.011C6.3006 140.645 7.18373 141.119 8.16475 141.434C9.12865 141.734 10.1318 141.84 11.1743 141.752Z" fill="white"/>
<path d="M22.8226 84.4999C24.1325 84.9795 25.1562 85.6413 25.8937 86.4853C26.6367 87.3144 27.0883 88.2478 27.2485 89.2856C27.4236 90.3287 27.3291 91.4167 26.965 92.5494L24.8662 91.7809C25.1882 90.7172 25.1295 89.725 24.69 88.8045C24.2709 87.8746 23.3618 87.1534 21.9626 86.6411L8.812 81.8258L9.605 79.6601L22.8226 84.4999Z" fill="white"/>
<path d="M27.3447 81.3271L12.0538 73.4719L14.1941 69.3055C14.9691 67.7968 15.8609 66.6333 16.8694 65.8149C17.8852 64.9823 18.9403 64.4373 20.0349 64.1799C21.1294 63.9224 22.218 63.8847 23.3007 64.0666C24.3765 64.2272 25.3727 64.543 26.2891 65.0138C27.4453 65.6077 28.3766 66.3445 29.083 67.2242C29.7967 68.0898 30.2967 69.0417 30.5831 70.0798C30.8696 71.118 30.9536 72.1858 30.8353 73.2834C30.7101 74.3596 30.3868 75.4053 29.8653 76.4204L27.3447 81.3271ZM26.4317 78.2652L27.692 75.8119C28.1266 74.9659 28.398 74.1252 28.5064 73.2899C28.622 72.4404 28.5741 71.6317 28.3627 70.8638C28.1586 70.0817 27.7871 69.3652 27.2484 68.7142C26.6955 68.0559 25.9749 67.4987 25.0866 67.0423C24.142 66.5571 23.2375 66.2884 22.3732 66.2365C21.4947 66.1773 20.6782 66.2924 19.9236 66.5819C19.169 66.8714 18.498 67.293 17.9106 67.8467C17.3092 68.3931 16.8165 69.0399 16.4326 69.7872L15.0745 72.4308L26.4317 78.2652Z" fill="white"/>
<path d="M28.6057 49.8848C28.1566 50.1275 27.6461 50.4822 27.0742 50.9491C26.4895 51.4066 25.9837 51.9309 25.5567 52.522C24.8699 53.4729 24.5599 54.4027 24.627 55.3115C24.694 56.2203 25.0873 56.9346 25.8069 57.4544C26.3465 57.8442 26.9076 58.0149 27.4902 57.9664C28.0692 57.8958 28.6664 57.6916 29.2818 57.354C29.8972 57.0164 30.5294 56.642 31.1784 56.2309C31.6795 55.8889 32.1907 55.5738 32.7119 55.2854C33.2423 54.9842 33.7853 54.7605 34.3407 54.6142C34.8926 54.4457 35.4658 54.4101 36.0605 54.5072C36.6552 54.6044 37.2673 54.8803 37.8969 55.3352C38.6679 55.8921 39.2126 56.5593 39.5309 57.3367C39.8364 58.1049 39.9223 58.9198 39.7887 59.7815C39.6423 60.6339 39.2767 61.4648 38.692 62.2743C38.1815 62.9811 37.6321 63.5521 37.0438 63.9876C36.4555 64.423 35.9083 64.761 35.4021 65.0015C34.9052 65.2292 34.5182 65.3994 34.2412 65.5122L33.905 64.8C34.3148 64.6659 34.7664 64.4739 35.2597 64.2241C35.7623 63.9614 36.2671 63.6416 36.774 63.2647C37.268 62.8785 37.6914 62.4413 38.0441 61.953C38.4711 61.362 38.7685 60.7066 38.9363 59.987C39.0913 59.2581 39.0564 58.5485 38.8316 57.8582C38.616 57.155 38.1485 56.5435 37.4289 56.0237C36.7094 55.5039 36.0123 55.2643 35.3376 55.3049C34.6594 55.3234 33.9969 55.5097 33.3501 55.8638C32.6997 56.1957 32.0518 56.5783 31.4064 57.0115C30.9237 57.3277 30.4347 57.6393 29.9392 57.9463C29.4402 58.2311 28.9386 58.4652 28.4346 58.6486C27.927 58.8099 27.4191 58.8634 26.9108 58.8091C26.4025 58.7548 25.8978 58.5466 25.3967 58.1846C24.767 57.7298 24.337 57.1747 24.1064 56.5194C23.8723 55.8418 23.8263 55.134 23.9685 54.3959C24.107 53.6356 24.4251 52.8974 24.9228 52.1814C25.3312 51.616 25.8492 51.0614 26.4768 50.5175C27.1043 49.9735 27.7119 49.552 28.2995 49.2529L28.6057 49.8848Z" fill="white"/>
<path d="M31.696 43.5957L39.2264 35.6637L39.7954 36.2039L36.2921 39.894L47.8971 50.9113L47.3405 51.4976L35.7355 40.4803L32.265 44.1359L31.696 43.5957Z" fill="white"/>
<path d="M52.0579 39.1596C52.7019 39.9841 53.4156 40.563 54.199 40.8965C54.9824 41.2299 55.7771 41.3332 56.5832 41.2065C57.4018 41.0699 58.1733 40.7187 58.8979 40.1528C59.6349 39.5771 60.1688 38.9087 60.4995 38.1475C60.8302 37.3864 60.9286 36.5854 60.7948 35.7446C60.6735 34.894 60.2909 34.0565 59.6469 33.232L52.7533 24.4063L53.3717 23.9233L60.3092 32.8052C61.0605 33.7671 61.4997 34.7415 61.6269 35.7283C61.7567 36.6928 61.621 37.6135 61.2196 38.4901C60.8308 39.357 60.2178 40.1174 59.3809 40.7711C58.5439 41.4249 57.6578 41.8354 56.7225 42.0028C55.7872 42.1701 54.8673 42.074 53.9629 41.7144C53.0488 41.3423 52.216 40.6753 51.4647 39.7134L44.5273 30.8315L45.1644 30.3339L52.0579 39.1596Z" fill="white"/>
<path d="M68.7485 33.8086L60.7351 19.0585L64.245 17.1516C65.6518 16.3873 66.9815 15.9626 68.234 15.8774C69.479 15.7783 70.6084 15.9314 71.6223 16.3366C72.6426 16.7204 73.5373 17.2716 74.3066 17.9902C75.0682 18.6948 75.6798 19.472 76.1414 20.3216C76.7468 21.4359 77.1004 22.5516 77.2022 23.6688C77.2965 24.7721 77.1834 25.8257 76.8629 26.8297C76.5425 27.8336 76.045 28.7442 75.3706 29.5616C74.7026 30.3574 73.895 31.0127 72.9479 31.5272L68.7485 33.8086ZM69.0843 32.7333L72.3435 30.9626C73.2628 30.4632 74.0431 29.8408 74.6845 29.0955C75.3259 28.3502 75.7909 27.5293 76.0796 26.6329C76.3746 25.7149 76.473 24.7505 76.3748 23.7395C76.2765 22.7286 75.9474 21.7078 75.3875 20.6771C74.941 19.8553 74.3628 19.1231 73.653 18.4805C72.9431 17.838 72.1216 17.3552 71.1885 17.0323C70.2618 16.6879 69.2436 16.5736 68.134 16.6894C67.0382 16.7976 65.8775 17.1847 64.6518 17.8506L61.8313 19.3829L69.0843 32.7333Z" fill="white"/>
<path d="M78.6465 10.2354L79.3972 9.93534L85.6281 25.5225L84.8774 25.8226L78.6465 10.2354Z" fill="white"/>
<path d="M88.2022 15.3309C87.9145 14.1937 87.8594 13.0713 88.037 11.9635C88.2107 10.8405 88.5768 9.7995 89.1354 8.84064C89.7093 7.8779 90.4413 7.05504 91.3313 6.37205C92.2328 5.66981 93.2521 5.17483 94.3892 4.88713C95.5418 4.59554 96.6738 4.5462 97.7854 4.73913C98.8932 4.91669 99.9284 5.29245 100.891 5.86641C101.854 6.44036 102.679 7.18002 103.366 8.08537C104.064 8.97148 104.557 9.98311 104.845 11.1203C105.132 12.2574 105.182 13.3895 104.993 14.5164C104.815 15.6242 104.439 16.6594 103.865 17.6221C103.288 18.5695 102.554 19.3847 101.664 20.0677C100.774 20.7507 99.7524 21.238 98.5998 21.5296C97.4627 21.8173 96.3365 21.8896 95.2211 21.7467C94.1173 21.5845 93.0879 21.2318 92.133 20.6886C91.1895 20.1261 90.3743 19.3922 89.6874 18.4868C89.0005 17.5815 88.5055 16.5295 88.2022 15.3309ZM89.0148 15.1498C89.2792 16.1947 89.7182 17.1219 90.3317 17.9314C90.9453 18.7409 91.6776 19.4058 92.5287 19.9262C93.3952 20.4428 94.3303 20.7785 95.3342 20.9333C96.338 21.0881 97.3471 21.0372 98.3613 20.7806C99.4216 20.5123 100.356 20.0714 101.166 19.4578C101.991 18.8404 102.654 18.1004 103.155 17.2378C103.672 16.3713 104.015 15.4342 104.185 14.4265C104.351 13.4034 104.302 12.3693 104.038 11.3244C103.773 10.2794 103.327 9.35416 102.698 8.5486C102.08 7.72378 101.339 7.05309 100.472 6.53653C99.6056 6.01997 98.6608 5.67856 97.6377 5.51229C96.6299 5.34214 95.6113 5.3873 94.5817 5.64779C93.5214 5.91606 92.5827 6.37428 91.7657 7.02246C90.9601 7.65139 90.3087 8.40483 89.8113 9.28277C89.314 10.1607 88.9899 11.1093 88.839 12.1285C88.6996 13.1285 88.7582 14.1356 89.0148 15.1498Z" fill="white"/>
<path d="M147.4 17.3175C147.14 18.688 146.654 19.8058 145.941 20.671C145.244 21.5391 144.397 22.1367 143.399 22.4638C142.398 22.8064 141.31 22.8904 140.133 22.7156L140.549 20.5197C141.651 20.6641 142.62 20.4446 143.457 19.8611C144.306 19.2961 144.87 18.2817 145.147 16.8178L147.756 3.05845L150.022 3.48813L147.4 17.3175Z" fill="white"/>
<path d="M151.267 21.2624L156.527 4.89621L160.986 6.32937C162.601 6.84831 163.894 7.53866 164.866 8.40041C165.853 9.26701 166.562 10.2193 166.995 11.2573C167.427 12.2953 167.641 13.3633 167.638 14.4611C167.655 15.5487 167.506 16.583 167.19 17.5639C166.793 18.8014 166.217 19.8402 165.465 20.6805C164.727 21.5256 163.869 22.174 162.891 22.6257C161.914 23.0774 160.874 23.3342 159.772 23.3963C158.69 23.448 157.605 23.2993 156.519 22.9501L151.267 21.2624ZM154.139 19.8628L156.765 20.7067C157.671 20.9977 158.544 21.1287 159.386 21.0995C160.243 21.0752 161.033 20.8963 161.756 20.5626C162.495 20.2338 163.141 19.7506 163.696 19.113C164.255 18.4603 164.688 17.6586 164.993 16.7079C165.318 15.6968 165.436 14.7606 165.346 13.8994C165.262 13.023 165.015 12.2362 164.606 11.5388C164.198 10.8414 163.673 10.248 163.031 9.75866C162.394 9.25422 161.675 8.87348 160.875 8.61643L158.046 7.70707L154.139 19.8628Z" fill="white"/>
<path d="M182.495 17.3854C182.182 16.9819 181.749 16.536 181.195 16.0478C180.649 15.5454 180.049 15.1317 179.396 14.8068C178.346 14.2839 177.378 14.1296 176.493 14.3438C175.607 14.5579 174.966 15.0623 174.57 15.8569C174.274 16.4529 174.197 17.0343 174.339 17.6011C174.503 18.1609 174.802 18.7169 175.235 19.2691C175.669 19.8213 176.141 20.3841 176.653 20.9574C177.072 21.3962 177.466 21.8492 177.835 22.3165C178.219 22.7908 178.528 23.29 178.763 23.8142C179.019 24.3313 179.147 24.8911 179.148 25.4936C179.149 26.0962 178.977 26.7451 178.631 27.4404C178.207 28.2918 177.637 28.9378 176.922 29.3785C176.214 29.805 175.424 30.0226 174.552 30.0311C173.687 30.0255 172.807 29.8001 171.914 29.355C171.133 28.9664 170.48 28.5174 169.955 28.0079C169.429 27.4983 169.007 27.0135 168.687 26.5532C168.381 26.1001 168.15 25.746 167.994 25.4911L168.642 25.0434C168.841 25.4258 169.104 25.8401 169.431 26.2861C169.772 26.7393 170.17 27.1852 170.624 27.6239C171.085 28.0485 171.586 28.395 172.125 28.6635C172.778 28.9885 173.473 29.1752 174.21 29.2236C174.954 29.2578 175.649 29.1077 176.293 28.7735C176.952 28.4463 177.479 27.8854 177.875 27.0908C178.271 26.2961 178.393 25.5693 178.244 24.9103C178.115 24.2442 177.823 23.6208 177.368 23.0403C176.935 22.4527 176.452 21.8757 175.919 21.3095C175.529 20.8848 175.142 20.4531 174.758 20.0142C174.396 19.5682 174.083 19.1115 173.82 18.6441C173.578 18.1695 173.443 17.6771 173.414 17.1667C173.384 16.6564 173.508 16.1245 173.783 15.5711C174.129 14.8758 174.607 14.3611 175.216 14.0269C175.846 13.6856 176.537 13.5249 177.289 13.5449C178.061 13.5578 178.842 13.7514 179.629 14.1258C180.253 14.4367 180.885 14.8574 181.524 15.388C182.163 15.9186 182.678 16.4494 183.068 16.9804L182.495 17.3854Z" fill="white"/>
<path d="M189.203 19.4101L198.256 25.548L197.816 26.1974L193.604 23.342L184.624 36.5864L183.955 36.1327L192.935 22.8883L188.763 20.0595L189.203 19.4101Z" fill="white"/>
<path d="M196.897 38.7777C196.188 39.5473 195.733 40.3458 195.532 41.173C195.33 42.0003 195.358 42.8012 195.614 43.5759C195.882 44.3613 196.354 45.0653 197.031 45.688C197.719 46.3215 198.465 46.7393 199.27 46.9417C200.075 47.144 200.881 47.1107 201.689 46.8417C202.509 46.5835 203.273 46.0695 203.981 45.2998L211.566 37.0609L212.143 37.5923L204.51 45.8838C203.683 46.7817 202.794 47.3738 201.841 47.66C200.91 47.9452 199.98 47.9612 199.049 47.708C198.131 47.4655 197.281 46.9846 196.499 46.2653C195.718 45.546 195.169 44.7385 194.851 43.843C194.534 42.9475 194.479 42.0242 194.686 41.0733C194.904 40.1108 195.427 39.1805 196.254 38.2826L203.887 29.9911L204.482 30.5387L196.897 38.7777Z" fill="white"/>
<path d="M204.895 54.3737L218.143 44.0649L220.596 47.2174C221.579 48.4809 222.215 49.7237 222.503 50.9456C222.803 52.1578 222.836 53.2971 222.601 54.3635C222.389 55.4326 221.991 56.4052 221.407 57.2812C220.836 58.1474 220.169 58.8775 219.406 59.4713C218.405 60.25 217.362 60.7806 216.276 61.0631C215.203 61.3358 214.145 61.3958 213.102 61.2432C212.059 61.0905 211.08 60.748 210.164 60.2157C209.27 59.6863 208.492 58.9962 207.83 58.1455L204.895 54.3737ZM206.01 54.5299L208.288 57.4572C208.931 58.2829 209.672 58.9514 210.512 59.4628C211.352 59.9743 212.237 60.2994 213.169 60.4382C214.122 60.5798 215.09 60.5198 216.071 60.2582C217.053 59.9966 218.006 59.5056 218.932 58.7853C219.67 58.211 220.299 57.5213 220.817 56.7162C221.335 55.9111 221.678 55.022 221.844 54.0488C222.033 53.0784 221.98 52.0551 221.685 50.9792C221.4 49.9157 220.829 48.8335 219.972 47.7327L218.001 45.1994L206.01 54.5299Z" fill="white"/>
<path d="M229.765 60.3003L230.184 60.992L215.819 69.6784L215.401 68.9867L229.765 60.3003Z" fill="white"/>
<path d="M226.294 70.5582C227.369 70.0891 228.468 69.852 229.59 69.8468C230.726 69.8352 231.813 70.0269 232.85 70.4218C233.893 70.8313 234.824 71.4195 235.643 72.1864C236.483 72.9614 237.137 73.8865 237.606 74.9616C238.082 76.0513 238.315 77.1602 238.305 78.2884C238.31 79.4102 238.108 80.4928 237.699 81.5362C237.289 82.5795 236.694 83.5138 235.913 84.339C235.152 85.1723 234.234 85.8235 233.159 86.2926C232.084 86.7617 230.975 86.9947 229.832 86.9918C228.711 86.997 227.628 86.7949 226.585 86.3854C225.556 85.9696 224.632 85.3782 223.813 84.6114C222.994 83.8445 222.347 82.9162 221.872 81.8266C221.403 80.7515 221.148 79.6521 221.107 78.5284C221.087 77.4129 221.268 76.3398 221.648 75.3091C222.049 74.2866 222.641 73.3628 223.422 72.5376C224.204 71.7124 225.161 71.0526 226.294 70.5582ZM226.605 71.3305C225.617 71.7615 224.774 72.3456 224.075 73.0828C223.376 73.82 222.84 74.6509 222.465 75.5754C222.096 76.5144 221.917 77.4918 221.928 78.5074C221.939 79.5231 222.153 80.5104 222.572 81.4692C223.009 82.4717 223.597 83.3223 224.334 84.021C225.077 84.7343 225.915 85.2679 226.848 85.6219C227.787 85.9904 228.768 86.1766 229.79 86.1803C230.826 86.1777 231.838 85.9609 232.826 85.5299C233.814 85.0988 234.654 84.5074 235.347 83.7557C236.06 83.0122 236.601 82.1709 236.969 81.2318C237.338 80.2928 237.521 79.305 237.518 78.2685C237.522 77.2465 237.312 76.2488 236.887 75.2754C236.45 74.2729 235.845 73.4214 235.072 72.7208C234.32 72.0285 233.471 71.5085 232.524 71.1608C231.576 70.8131 230.588 70.6478 229.557 70.665C228.548 70.6903 227.564 70.9121 226.605 71.3305Z" fill="white"/>
<path d="M233.976 129.289C232.581 129.256 231.399 128.958 230.429 128.396C229.459 127.85 228.732 127.111 228.247 126.18C227.745 125.248 227.485 124.188 227.466 122.998L229.7 123.051C229.737 124.162 230.112 125.083 230.824 125.813C231.52 126.559 232.612 126.95 234.102 126.985L248.102 127.318L248.048 129.624L233.976 129.289Z" fill="white"/>
<path d="M230.713 133.747L247.717 136.271L247.03 140.904C246.781 142.582 246.31 143.97 245.618 145.07C244.924 146.184 244.1 147.04 243.146 147.635C242.192 148.231 241.174 148.616 240.09 148.792C239.02 148.986 237.975 149.007 236.956 148.856C235.67 148.665 234.551 148.266 233.6 147.66C232.646 147.07 231.866 146.329 231.261 145.438C230.656 144.547 230.234 143.563 229.993 142.486C229.766 141.427 229.736 140.332 229.903 139.203L230.713 133.747ZM232.562 136.353L232.157 139.081C232.017 140.022 232.03 140.905 232.196 141.731C232.36 142.573 232.665 143.323 233.112 143.982C233.557 144.657 234.139 145.216 234.858 145.66C235.593 146.105 236.455 146.402 237.442 146.548C238.493 146.704 239.436 146.668 240.271 146.439C241.122 146.213 241.858 145.841 242.48 145.325C243.101 144.808 243.601 144.193 243.979 143.48C244.373 142.769 244.632 141.999 244.755 141.168L245.192 138.228L232.562 136.353Z" fill="white"/>
<path d="M239.625 163.926C239.972 163.552 240.341 163.052 240.733 162.426C241.139 161.805 241.45 161.146 241.664 160.449C242.009 159.328 242.004 158.348 241.648 157.509C241.293 156.67 240.691 156.12 239.842 155.859C239.206 155.663 238.62 155.682 238.084 155.915C237.558 156.168 237.058 156.553 236.584 157.071C236.11 157.588 235.631 158.146 235.149 158.744C234.784 159.229 234.401 159.691 234.001 160.132C233.595 160.588 233.153 160.974 232.674 161.291C232.205 161.628 231.674 161.846 231.08 161.945C230.485 162.044 229.817 161.98 229.075 161.751C228.166 161.472 227.435 161.015 226.884 160.381C226.348 159.752 226.005 159.008 225.854 158.149C225.719 157.295 225.798 156.39 226.092 155.436C226.348 154.603 226.685 153.885 227.102 153.284C227.519 152.682 227.928 152.187 228.33 151.796C228.728 151.421 229.039 151.135 229.265 150.939L229.813 151.506C229.468 151.764 229.102 152.091 228.715 152.487C228.324 152.897 227.948 153.362 227.589 153.882C227.246 154.406 226.985 154.956 226.808 155.532C226.594 156.229 226.523 156.945 226.595 157.68C226.683 158.42 226.944 159.081 227.379 159.663C227.809 160.259 228.448 160.688 229.297 160.949C230.145 161.21 230.882 161.213 231.508 160.957C232.144 160.722 232.712 160.333 233.21 159.79C233.72 159.266 234.21 158.696 234.682 158.078C235.037 157.623 235.4 157.171 235.771 156.721C236.152 156.291 236.552 155.908 236.97 155.573C237.399 155.257 237.863 155.043 238.361 154.931C238.86 154.819 239.405 154.854 239.996 155.036C240.738 155.264 241.324 155.651 241.753 156.198C242.192 156.764 242.463 157.42 242.566 158.164C242.679 158.929 242.615 159.73 242.374 160.568C242.169 161.235 241.857 161.926 241.437 162.643C241.018 163.36 240.578 163.954 240.118 164.426L239.625 163.926Z" fill="white"/>
<path d="M238.72 170.875L234.138 180.807L233.426 180.478L235.557 175.858L221.027 169.155L221.366 168.421L235.896 175.124L238.008 170.546L238.72 170.875Z" fill="white"/>
<path d="M220.864 181.62C219.989 181.046 219.127 180.728 218.278 180.664C217.429 180.6 216.643 180.757 215.921 181.136C215.189 181.529 214.572 182.109 214.067 182.878C213.555 183.66 213.264 184.465 213.195 185.292C213.127 186.119 213.291 186.909 213.688 187.662C214.076 188.428 214.708 189.099 215.583 189.672L224.947 195.814L224.517 196.47L215.093 190.289C214.072 189.62 213.343 188.838 212.905 187.945C212.472 187.073 212.305 186.158 212.403 185.199C212.493 184.253 212.829 183.336 213.411 182.448C213.994 181.56 214.701 180.886 215.533 180.427C216.365 179.968 217.267 179.763 218.239 179.813C219.224 179.872 220.227 180.236 221.247 180.905L230.671 187.086L230.228 187.762L220.864 181.62Z" fill="white"/>
<path d="M206.779 192.052L219.107 203.444L216.397 206.377C215.31 207.553 214.187 208.383 213.029 208.866C211.882 209.36 210.763 209.578 209.673 209.52C208.583 209.485 207.559 209.25 206.599 208.817C205.652 208.395 204.823 207.855 204.113 207.199C203.181 206.339 202.488 205.396 202.032 204.37C201.588 203.356 201.357 202.322 201.338 201.268C201.318 200.215 201.497 199.192 201.873 198.202C202.25 197.233 202.804 196.353 203.535 195.562L206.779 192.052ZM206.806 193.178L204.289 195.902C203.579 196.67 203.04 197.511 202.672 198.422C202.304 199.334 202.128 200.261 202.143 201.203C202.158 202.167 202.375 203.112 202.793 204.038C203.211 204.963 203.851 205.824 204.712 206.62C205.399 207.255 206.182 207.762 207.061 208.143C207.939 208.523 208.872 208.716 209.86 208.722C210.848 208.75 211.849 208.531 212.863 208.065C213.865 207.61 214.84 206.871 215.787 205.846L217.965 203.489L206.806 193.178Z" fill="white"/>
<path d="M204.982 217.555L204.368 218.081L193.458 205.323L194.072 204.798L204.982 217.555Z" fill="white"/>
<path d="M194.296 215.801C194.934 216.786 195.347 217.831 195.534 218.937C195.731 220.056 195.719 221.16 195.498 222.247C195.264 223.343 194.835 224.358 194.212 225.291C193.584 226.245 192.778 227.042 191.794 227.68C190.796 228.326 189.74 228.737 188.625 228.911C187.519 229.099 186.418 229.076 185.322 228.842C184.226 228.608 183.207 228.173 182.266 227.536C181.32 226.921 180.528 226.122 179.89 225.137C179.252 224.153 178.841 223.097 178.658 221.969C178.47 220.863 178.493 219.762 178.727 218.666C178.97 217.583 179.403 216.575 180.026 215.642C180.649 214.71 181.46 213.92 182.458 213.273C183.442 212.635 184.485 212.205 185.587 211.982C186.685 211.781 187.773 211.784 188.852 211.991C189.926 212.221 190.934 212.654 191.875 213.29C192.816 213.927 193.623 214.764 194.296 215.801ZM193.584 216.234C192.998 215.33 192.285 214.593 191.443 214.023C190.602 213.454 189.695 213.06 188.722 212.84C187.735 212.63 186.742 212.612 185.742 212.788C184.741 212.965 183.802 213.337 182.924 213.906C182.006 214.501 181.263 215.219 180.693 216.06C180.111 216.91 179.721 217.824 179.523 218.801C179.313 219.788 179.289 220.786 179.452 221.795C179.623 222.817 180.002 223.78 180.588 224.685C181.174 225.589 181.894 226.322 182.749 226.883C183.599 227.465 184.517 227.862 185.503 228.073C186.49 228.283 187.494 228.303 188.517 228.132C189.526 227.969 190.476 227.599 191.367 227.021C192.285 226.426 193.026 225.691 193.592 224.814C194.152 223.96 194.527 223.037 194.716 222.046C194.905 221.055 194.907 220.052 194.722 219.039C194.533 218.047 194.153 217.112 193.584 216.234Z" fill="white"/>
</svg>
